<?xml version="1.0" encoding="UTF-8" standalone="no"?>
<!-- Created with Inkscape (http://www.inkscape.org/) -->

<svg
   width="190.86874mm"
   height="148.20909mm"
   viewBox="0 0 190.86875 148.20909"
   version="1.1"
   id="svg5"
   sodipodi:docname="LOGO_FINAL_23.svg"
   inkscape:version="1.2.2 (732a01da63, 2022-12-09)"
   xmlns:inkscape="http://www.inkscape.org/namespaces/inkscape"
   xmlns:sodipodi="http://sodipodi.sourceforge.net/DTD/sodipodi-0.dtd"
   xmlns="http://www.w3.org/2000/svg"
   xmlns:svg="http://www.w3.org/2000/svg">
  <sodipodi:namedview
     id="namedview7"
     pagecolor="#000000"
     bordercolor="#000000"
     borderopacity="0.25"
     inkscape:showpageshadow="2"
     inkscape:pageopacity="0"
     inkscape:pagecheckerboard="0"
     inkscape:deskcolor="#d1d1d1"
     inkscape:document-units="mm"
     showgrid="false"
     inkscape:zoom="1"
     inkscape:cx="311"
     inkscape:cy="251"
     inkscape:window-width="1680"
     inkscape:window-height="987"
     inkscape:window-x="-8"
     inkscape:window-y="-8"
     inkscape:window-maximized="1"
     inkscape:current-layer="layer1" />
  <defs
     id="defs2">
    <inkscape:path-effect
       effect="spiro"
       id="path-effect1944"
       is_visible="true"
       lpeversion="1" />
    <inkscape:path-effect
       effect="spiro"
       id="path-effect23913"
       is_visible="true"
       lpeversion="1" />
    <inkscape:path-effect
       effect="spiro"
       id="path-effect23909"
       is_visible="true"
       lpeversion="1" />
    <inkscape:path-effect
       effect="spiro"
       id="path-effect22408"
       is_visible="true"
       lpeversion="1" />
    <inkscape:path-effect
       effect="spiro"
       id="path-effect21678"
       is_visible="true"
       lpeversion="1" />
    <inkscape:path-effect
       effect="spiro"
       id="path-effect12128"
       is_visible="true"
       lpeversion="1" />
    <inkscape:path-effect
       effect="spiro"
       id="path-effect6953"
       is_visible="true"
       lpeversion="1" />
    <inkscape:path-effect
       effect="spiro"
       id="path-effect6949"
       is_visible="true"
       lpeversion="1" />
    <inkscape:path-effect
       effect="spiro"
       id="path-effect4005"
       is_visible="true"
       lpeversion="1" />
    <inkscape:path-effect
       effect="spiro"
       id="path-effect1597"
       is_visible="true"
       lpeversion="1" />
    <inkscape:path-effect
       effect="spiro"
       id="path-effect1593"
       is_visible="true"
       lpeversion="1" />
    <inkscape:path-effect
       effect="spiro"
       id="path-effect1589"
       is_visible="true"
       lpeversion="1" />
    <inkscape:path-effect
       effect="spiro"
       id="path-effect1435"
       is_visible="true"
       lpeversion="1" />
    <inkscape:path-effect
       effect="spiro"
       id="path-effect332"
       is_visible="true"
       lpeversion="1" />
    <inkscape:path-effect
       effect="spiro"
       id="path-effect11326"
       is_visible="true"
       lpeversion="1" />
    <inkscape:path-effect
       effect="spiro"
       id="path-effect4881"
       is_visible="true"
       lpeversion="1" />
    <rect
       x="143.88229"
       y="428.07953"
       width="577.90741"
       height="258.03683"
       id="rect236" />
    <rect
       x="143.88229"
       y="428.07953"
       width="577.90741"
       height="258.03683"
       id="rect236-8" />
    <inkscape:path-effect
       effect="spiro"
       id="path-effect4881-2"
       is_visible="true"
       lpeversion="1" />
    <inkscape:path-effect
       effect="spiro"
       id="path-effect12128-5"
       is_visible="true"
       lpeversion="1" />
  </defs>
  <g
     inkscape:label="Capa 1"
     inkscape:groupmode="layer"
     id="layer1"
     transform="translate(-23.580078,-74.174019)">
    <path
       style="fill:none;fill-opacity:1;stroke:#808080;stroke-width:0.3;stroke-dasharray:none;stroke-opacity:1"
       d="m 136.85689,165.89091 c 2.38036,0.4278 4.67226,1.34176 6.6938,2.66935 2.32846,1.52915 4.26473,3.57196 6.37236,5.39347 1.34609,1.16335 2.78784,2.25222 4.43201,2.93197 2.14423,0.88649 4.53328,1.03211 6.84355,0.81706 2.31027,-0.21505 4.57192,-0.7756 6.84131,-1.25877 1.9337,-0.4117 3.87873,-0.76812 5.82578,-1.11118 3.4019,-0.5994 6.85466,-1.1712 10.00454,-2.58911 1.75795,-0.79134 3.40465,-1.84376 4.81089,-3.16251 3.11603,-2.92216 4.91189,-7.0132 5.90424,-11.16818 0.37042,-1.55096 0.64086,-3.12709 1.09415,-4.65589 0.63095,-2.12802 1.61031,-4.14423 2.17365,-6.29114 0.7774,-2.96271 0.71179,-6.21619 -0.60804,-8.98026 -0.83498,-1.74868 -2.12916,-3.23574 -3.49603,-4.60933 -1.36686,-1.37359 -2.82533,-2.66119 -4.08106,-4.13707 -2.11121,-2.48135 -3.60838,-5.44686 -5.79974,-7.85772 -1.15939,-1.27552 -2.51307,-2.38815 -4.04799,-3.17245 -1.53493,-0.7843 -3.25624,-1.2326 -4.97905,-1.17736 -2.23201,0.0716 -4.36692,0.97013 -6.59487,1.12253 -1.24353,0.0851 -2.49624,-0.0652 -3.7067,-0.36246 -1.61606,-0.39689 -3.16716,-1.05699 -4.57363,-1.94637"
       id="path6951"
       sodipodi:nodetypes="cssssssssssssssssc"
       inkscape:original-d="m 136.85689,165.89091 c 2.02705,0.87335 4.66727,1.85889 6.6938,2.66935 2.02653,0.81045 5.06301,3.58521 6.37236,5.39347 1.30936,1.80826 2.77966,1.90325 4.43201,2.93197 1.65235,1.02872 9.16381,0.18219 13.68486,-0.44171 4.52104,-0.62389 3.67452,-0.61201 5.82578,-1.11118 2.15125,-0.49916 7.51029,-2.71354 10.00454,-2.58911 2.49426,0.12446 2.72199,-1.69672 4.81089,-3.16251 2.08889,-1.46579 4.7508,-7.70678 5.90424,-11.16818 1.15346,-3.46141 0.75142,-2.72238 1.09415,-4.65589 0.34273,-1.93352 0.8643,-4.48236 2.17365,-6.29114 1.30936,-1.80879 -0.60778,-6.42312 -0.60804,-8.98026 -2.6e-4,-2.55714 -1.41561,-7.68943 -7.57709,-8.7464 -3.52752,-0.60513 -3.64796,-4.80167 -5.79974,-7.85772 -2.15179,-3.05604 -6.03336,-2.79048 -9.02704,-4.34981 -2.99368,-1.55934 -4.78608,0.81098 -6.59487,1.12253 -1.80879,0.31155 -2.14736,-0.64285 -3.7067,-0.36246 -1.55934,0.28037 -3.35729,-1.16657 -4.57363,-1.94637"
       inkscape:path-effect="#path-effect6953" />
    <rect
       style="fill:#000000;fill-opacity:1;stroke:none;stroke-width:0.341144"
       id="rect7524"
       width="190.86874"
       height="148.20909"
       x="23.580078"
       y="74.174019" />
    <path
       style="fill:none;fill-opacity:1;stroke:#ffffff;stroke-width:0.5;stroke-dasharray:none;stroke-opacity:1"
       d="m 49.926516,172.59644 c -7.528571,-6.06487 -12.10774,-15.63396 -12.10774,-25.30153 0,-9.66758 4.579169,-19.23667 12.10774,-25.30154 6.40181,-5.15718 14.72633,-7.73864 22.945471,-7.57943 8.219141,0.15921 16.29946,2.98016 23.113149,7.57943 9.506364,6.41683 16.371734,15.9622 23.029314,25.30154 6.65758,9.33933 13.52295,18.8847 23.02931,25.30153 6.81369,4.59927 14.89401,7.42022 23.11315,7.57943 8.21914,0.15921 16.54366,-2.42225 22.94547,-7.57943 7.52857,-6.06487 12.10774,-15.63396 12.10774,-25.30154 0,-9.66757 -4.57917,-19.23666 -12.10774,-25.30153 -6.40181,-5.15718 -14.72633,-7.73864 -22.94547,-7.57943 -8.21914,0.15921 -16.29946,2.98016 -23.11315,7.57943 -9.50636,6.41683 -16.37173,15.9622 -23.02931,25.30154 -6.65758,9.33933 -13.52295,18.8847 -23.029314,25.30153 -6.813689,4.59927 -14.894008,7.42022 -23.113149,7.57943 -8.219141,0.15921 -16.543661,-2.42225 -22.945471,-7.57943 z"
       id="path11324"
       inkscape:path-effect="#path-effect11326"
       inkscape:original-d="m 49.926516,172.59644 c -22.763541,-11.46383 -6.87774,-33.57127 0,-50.60307 6.87774,-17.03181 25.588471,-4.7488 46.05862,0 20.470134,4.7488 32.630324,29.15033 46.058624,50.60307 13.4283,21.45273 18.21908,-2.78364 46.05862,0 27.83953,2.78364 -2.94742,-23.25414 0,-50.60307 2.9474,-27.348951 -21.00238,-3.93 -46.05862,0 -25.05624,3.92998 -22.31251,27.67646 -46.058624,50.60307 -23.746122,22.92661 -23.295078,11.46382 -46.05862,0 z"
       sodipodi:nodetypes="sssssssss" />
    <path
       id="rect11328"
       style="stroke-width:0.598121"
       d="m 131.37089,94.60836 40.99851,29.17011 -31.6075,40.30874 -78.154357,22.46299 z"
       sodipodi:nodetypes="ccccc" />
    <text
       xml:space="preserve"
       transform="matrix(0.26458333,0,0,0.26458333,17.600454,12.806156)"
       id="text234"
       style="font-size:106.667px;font-family:Nasalization;-inkscape-font-specification:Nasalization;white-space:pre;shape-inside:url(#rect236);display:inline;fill:#ffffff;fill-opacity:1;stroke:none;stroke-width:2.45669"><tspan
         x="143.88281"
         y="519.57834"
         id="tspan2628">AlUnizar</tspan></text>
    <text
       xml:space="preserve"
       transform="matrix(0.26458333,0,0,0.26458333,42.85252,39.129913)"
       id="text234-3"
       style="font-size:53.3333px;font-family:Nasalization;-inkscape-font-specification:Nasalization;white-space:pre;shape-inside:url(#rect236-8);display:inline;fill:#ffffff;fill-opacity:1;stroke:none;stroke-width:2.45669"><tspan
         x="143.88281"
         y="473.82904"
         id="tspan2634"><tspan
   style="fill:#808080"
   id="tspan2630">Ad</tspan> <tspan
   style="fill:#00a9ff"
   id="tspan2632">Lunam</tspan></tspan></text>
    <path
       id="rect6373-6-9"
       style="fill:#2e75b6;fill-opacity:1;stroke-width:0.119187"
       d="m 141.55086,122.74392 0.006,-9.5e-4 c -1.8e-4,1.8e-4 -3.2e-4,3.6e-4 -3.8e-4,5.7e-4 l -4.8e-4,3.3e-4 9.5e-4,-3.4e-4 -5.2e-4,2.5e-4 9.5e-4,-3.3e-4 c 1.59114,-0.0764 3.17465,-0.31086 4.71964,-0.69882 1.01113,-0.25388 2.00792,-0.57422 2.957,-1.00563 0.0323,-0.0146 0.0641,-0.03 0.0962,-0.0446 l 0.72316,0.50699 1.00124,-0.45926 0.58283,0.42839 2.10198,-0.9607 -1.68357,-1.19947 c 0.14505,-0.1155 0.28803,-0.23347 0.42823,-0.35481 l 5.4e-4,-1.6e-4 -1.5e-4,-3.2e-4 c 7e-5,-8e-5 1.4e-4,-1.4e-4 2.9e-4,-2.5e-4 l -3.3e-4,1.5e-4 -0.0927,-0.20371 a 1.0370195,1.3644994 65.387833 0 0 0.22359,-1.07362 1.0370195,1.3644994 65.387833 0 0 -0.95971,-0.53194 l -0.0936,-0.203 3.4e-4,-1.6e-4 c -1.3e-4,3e-5 -1.9e-4,5e-5 -3.7e-4,9e-5 l -1.5e-4,-3.3e-4 -4.8e-4,3.1e-4 c -0.18342,0.0269 -0.36618,0.058 -0.54832,0.0924 l 0.19114,-2.05817 -2.10032,0.96434 -0.0563,0.72115 -1.00172,0.45826 -0.0884,0.87876 c -0.0322,0.0145 -0.0647,0.0289 -0.0967,0.0436 -0.94656,0.43691 -1.84014,0.98254 -2.69275,1.58247 -1.30059,0.91505 -2.51046,1.959 -3.60599,3.11167 z" />
    <path
       id="path6566"
       style="fill:#00b0f0;fill-opacity:1;stroke:none;stroke-width:0.0586168"
       d="m 151.97873,117.97019 a 1.3017672,2.108338 65.387833 0 0 2.4589,0.30534 1.3017672,2.108338 65.387833 0 0 0.78607,-0.50627 l 3.63071,-2.94892 -4.60432,0.82356 a 1.3017672,2.108338 65.387833 0 0 -0.89676,0.26465 1.3017672,2.108338 65.387833 0 0 -1.37464,2.06156 z" />
    <path
       style="fill:none;fill-opacity:1;stroke:#808080;stroke-width:0.499999;stroke-dasharray:none;stroke-opacity:1"
       d="m 67.90777,179.06283 c -6.622428,-0.95509 -12.929402,-3.99073 -17.807069,-8.57081 -4.871121,-4.57393 -8.304361,-10.69642 -9.486153,-17.27305 -1.181706,-6.57616 -0.08455,-13.53945 3.060371,-19.43451 3.98122,-7.46267 11.214021,-13.06948 19.380868,-15.27043 6.938202,-1.86983 14.526069,-1.31558 21.066279,1.66109 4.745681,2.15992 8.917764,5.56556 11.984217,9.78262"
       id="path23907"
       inkscape:path-effect="#path-effect23909"
       inkscape:original-d="m 67.90777,179.06283 c -4.178049,-3.18024 -17.434008,14.26152 -17.807069,-8.57081 -0.08498,-5.20128 -2.002341,-12.78265 -9.486153,-17.27305 -7.483811,-4.49039 0.877934,-9.20673 3.060371,-19.43451 2.182436,-10.22778 8.027912,-14.84961 19.380868,-15.27043 7.122259,-0.26401 13.770084,3.0957 21.066279,1.66109 7.296198,-1.43461 5.498737,6.10347 11.984217,9.78262"
       sodipodi:nodetypes="csssssc" />
    <path
       style="fill:none;fill-opacity:1;stroke:#808080;stroke-width:0.499999;stroke-dasharray:none;stroke-opacity:1"
       d="m 125.25399,166.35003 c 4.59456,4.63027 9.93245,8.52135 15.74659,11.47857 5.74974,2.92446 11.98057,4.93845 18.38251,5.73038 7.95863,0.9845 16.26184,0.021 23.46034,-3.51319 4.91072,-2.41098 9.23985,-5.98837 12.55925,-10.33688 6.32,-8.27939 8.77412,-19.44085 6.29911,-29.5584 -1.38426,-5.65871 -4.24272,-10.94493 -8.1898,-15.22952 -3.94708,-4.28459 -8.9719,-7.56181 -14.47063,-9.48565 -6.29582,-2.20272 -13.20541,-2.62025 -19.72066,-1.19167"
       id="path23911"
       inkscape:path-effect="#path-effect23913"
       inkscape:original-d="m 125.25399,166.35003 c 4.17858,3.55495 11.56854,7.92415 15.74659,11.47857 4.17805,3.55442 24.83552,9.08998 18.38251,5.73038 -0.92293,-0.4805 15.35343,-2.26567 23.46034,-3.51319 8.10691,-1.24752 7.41034,-4.15788 12.55925,-10.33688 4.85832,-5.83028 7.67136,-20.01662 6.29911,-29.5584 -1.37225,-9.54179 -15.17662,-22.96874 -22.66043,-24.71517 -7.48381,-1.74643 -15.90865,1.52517 -19.72066,-1.19167"
       sodipodi:nodetypes="cssssssc" />
    <circle
       style="fill:#000000;fill-opacity:1;stroke:#ffffff;stroke-width:0.1;stroke-dasharray:none;stroke-opacity:1"
       id="path1656"
       cx="129.37706"
       cy="130.28917"
       r="3.1183302" />
    <rect
       style="fill:#000000;fill-opacity:1;stroke:none;stroke-width:0.0769458;stroke-dasharray:none;stroke-opacity:1"
       id="rect2094"
       width="7.9540353"
       height="8.0036459"
       x="125.49427"
       y="126.2804" />
    <path
       style="fill:#ffffff;fill-opacity:1;stroke:none;stroke-width:0.475001;stroke-dasharray:none;stroke-opacity:1"
       d="m 132.12237,128.90025 c -0.44465,-0.8916 -1.34191,-1.5423 -2.32753,-1.68793 -0.98562,-0.14564 -2.03273,0.21776 -2.71623,0.94267 -0.54765,0.58082 -0.85773,1.3771 -0.85701,2.1754 7.2e-4,0.79605 0.3105,1.5897 0.85701,2.16852 0.68575,0.7263 1.73779,1.08767 2.7251,0.93604 0.98732,-0.15162 1.88244,-0.81201 2.31866,-1.71061 -0.29748,0.4291 -0.73412,0.76006 -1.22764,0.93053 -0.49352,0.17046 -1.04135,0.17954 -1.54024,0.0255 -0.4989,-0.15402 -0.94626,-0.47035 -1.25779,-0.88936 -0.31154,-0.41901 -0.48561,-0.93852 -0.48942,-1.46063 -0.004,-0.52514 0.16465,-1.05012 0.47334,-1.47496 0.3087,-0.42483 0.75597,-0.74725 1.2566,-0.90582 0.50063,-0.15857 1.05196,-0.15246 1.54895,0.0172 0.49699,0.16963 0.937,0.50188 1.2362,0.93346 z"
       id="path1942"
       inkscape:path-effect="#path-effect1944"
       inkscape:original-d="m 132.12237,128.90025 c -0.37834,0.0465 -4.54459,-1.13086 -5.04376,-0.74526 -0.49917,0.38561 -0.67356,1.52475 -0.85701,2.1754 -0.18346,0.65065 0.51038,1.475 0.85701,2.16852 0.34663,0.69353 4.37363,-1.01986 5.04376,-0.77457 0.61347,-0.0133 -4.51844,-0.30043 -4.51509,-1.39395 0.003,-1.09353 5.08388,-1.4022 4.51509,-1.43014 z"
       sodipodi:nodetypes="csssczc" />
    <circle
       style="fill:#808080;fill-opacity:1;stroke:none;stroke-width:0.08061;stroke-dasharray:none;stroke-opacity:1"
       id="path2304"
       cx="130.08858"
       cy="130.31657"
       r="2.0799427" />
  </g>
</svg>
